<?xml version="1.0" encoding="UTF-8" standalone="no"?>
<!DOCTYPE svg PUBLIC "-//W3C//DTD SVG 1.1//EN"
"http://www.w3.org/Graphics/SVG/1.1/DTD/svg11.dtd">
<svg version="1.1" xmlns="http://www.w3.org/2000/svg" xmlns:xlink="http://www.w3.org/1999/xlink">
<defs>
</defs>
<use 
xlink:href ="#F2_47" 
 transform="matrix(0.012 , 0, 0 , -0.012, 82 , 98)"
fill="#000000" 
stroke="none" 
 />
<use 
xlink:href ="#F2_10" 
 transform="matrix(0.012 , 0, 0 , -0.012, 98 , 98)"
fill="#000000" 
stroke="none" 
 />
<use 
xlink:href ="#F2_5" 
 transform="matrix(0.012 , 0, 0 , -0.012, 109 , 98)"
fill="#000000" 
stroke="none" 
 />
<use 
xlink:href ="#F2_46" 
 transform="matrix(0.012 , 0, 0 , -0.012, 127 , 98)"
fill="#000000" 
stroke="none" 
 />
<use 
xlink:href ="#F2_13" 
 transform="matrix(0.012 , 0, 0 , -0.012, 132 , 98)"
fill="#000000" 
stroke="none" 
 />
<use 
xlink:href ="#F2_15" 
 transform="matrix(0.012 , 0, 0 , -0.012, 149 , 98)"
fill="#000000" 
stroke="none" 
 />
<use 
xlink:href ="#F2_9" 
 transform="matrix(0.012 , 0, 0 , -0.012, 158 , 98)"
fill="#000000" 
stroke="none" 
 />
<use 
xlink:href ="#F2_8" 
 transform="matrix(0.012 , 0, 0 , -0.012, 165 , 98)"
fill="#000000" 
stroke="none" 
 />
<use 
xlink:href ="#F2_8" 
 transform="matrix(0.012 , 0, 0 , -0.012, 177 , 98)"
fill="#000000" 
stroke="none" 
 />
<use 
xlink:href ="#F2_28" 
 transform="matrix(0.012 , 0, 0 , -0.012, 188 , 98)"
fill="#000000" 
stroke="none" 
 />
<use 
xlink:href ="#F2_15" 
 transform="matrix(0.012 , 0, 0 , -0.012, 200 , 98)"
fill="#000000" 
stroke="none" 
 />
<use 
xlink:href ="#F2_19" 
 transform="matrix(0.012 , 0, 0 , -0.012, 215 , 98)"
fill="#000000" 
stroke="none" 
 />
<use 
xlink:href ="#F2_7" 
 transform="matrix(0.012 , 0, 0 , -0.012, 229 , 98)"
fill="#000000" 
stroke="none" 
 />
<use 
xlink:href ="#F2_28" 
 transform="matrix(0.012 , 0, 0 , -0.012, 240 , 98)"
fill="#000000" 
stroke="none" 
 />
<use 
xlink:href ="#F2_15" 
 transform="matrix(0.012 , 0, 0 , -0.012, 258 , 98)"
fill="#000000" 
stroke="none" 
 />
<use 
xlink:href ="#F2_8" 
 transform="matrix(0.012 , 0, 0 , -0.012, 268 , 98)"
fill="#000000" 
stroke="none" 
 />
<use 
xlink:href ="#F2_5" 
 transform="matrix(0.012 , 0, 0 , -0.012, 285 , 98)"
fill="#000000" 
stroke="none" 
 />
<use 
xlink:href ="#F2_17" 
 transform="matrix(0.012 , 0, 0 , -0.012, 297 , 98)"
fill="#000000" 
stroke="none" 
 />
<use 
xlink:href ="#F2_16" 
 transform="matrix(0.012 , 0, 0 , -0.012, 308 , 98)"
fill="#000000" 
stroke="none" 
 />
<use 
xlink:href ="#F2_15" 
 transform="matrix(0.012 , 0, 0 , -0.012, 320 , 98)"
fill="#000000" 
stroke="none" 
 />
<use 
xlink:href ="#F2_23" 
 transform="matrix(0.012 , 0, 0 , -0.012, 335 , 98)"
fill="#000000" 
stroke="none" 
 />
<use 
xlink:href ="#F2_16" 
 transform="matrix(0.012 , 0, 0 , -0.012, 341 , 98)"
fill="#000000" 
stroke="none" 
 />
<use 
xlink:href ="#F2_46" 
 transform="matrix(0.012 , 0, 0 , -0.012, 358 , 98)"
fill="#000000" 
stroke="none" 
 />
<use 
xlink:href ="#F2_7" 
 transform="matrix(0.012 , 0, 0 , -0.012, 363 , 98)"
fill="#000000" 
stroke="none" 
 />
<use 
xlink:href ="#F2_17" 
 transform="matrix(0.012 , 0, 0 , -0.012, 375 , 98)"
fill="#000000" 
stroke="none" 
 />
<use 
xlink:href ="#F2_11" 
 transform="matrix(0.012 , 0, 0 , -0.012, 392 , 98)"
fill="#000000" 
stroke="none" 
 />
<use 
xlink:href ="#F2_8" 
 transform="matrix(0.012 , 0, 0 , -0.012, 397 , 98)"
fill="#000000" 
stroke="none" 
 />
<use 
xlink:href ="#F2_36" 
 transform="matrix(0.012 , 0, 0 , -0.012, 409 , 98)"
fill="#000000" 
stroke="none" 
 />
<use 
xlink:href ="#F2_8" 
 transform="matrix(0.012 , 0, 0 , -0.012, 423 , 98)"
fill="#000000" 
stroke="none" 
 />
<use 
xlink:href ="#F2_5" 
 transform="matrix(0.012 , 0, 0 , -0.012, 441 , 98)"
fill="#000000" 
stroke="none" 
 />
<use 
xlink:href ="#F2_8" 
 transform="matrix(0.012 , 0, 0 , -0.012, 452 , 98)"
fill="#000000" 
stroke="none" 
 />
<use 
xlink:href ="#F2_16" 
 transform="matrix(0.012 , 0, 0 , -0.012, 464 , 98)"
fill="#000000" 
stroke="none" 
 />
<use 
xlink:href ="#F2_23" 
 transform="matrix(0.012 , 0, 0 , -0.012, 475 , 98)"
fill="#000000" 
stroke="none" 
 />
<use 
xlink:href ="#F2_8" 
 transform="matrix(0.012 , 0, 0 , -0.012, 480 , 98)"
fill="#000000" 
stroke="none" 
 />
<use 
xlink:href ="#F2_9" 
 transform="matrix(0.012 , 0, 0 , -0.012, 492 , 98)"
fill="#000000" 
stroke="none" 
 />
<use 
xlink:href ="#F2_8" 
 transform="matrix(0.012 , 0, 0 , -0.012, 505 , 98)"
fill="#000000" 
stroke="none" 
 />
<use 
xlink:href ="#F2_16" 
 transform="matrix(0.012 , 0, 0 , -0.012, 516 , 98)"
fill="#000000" 
stroke="none" 
 />
<use 
xlink:href ="#F2_12" 
 transform="matrix(0.012 , 0, 0 , -0.012, 534 , 98)"
fill="#000000" 
stroke="none" 
 />
<use 
xlink:href ="#F2_10" 
 transform="matrix(0.012 , 0, 0 , -0.012, 552 , 98)"
fill="#000000" 
stroke="none" 
 />
<use 
xlink:href ="#F2_5" 
 transform="matrix(0.012 , 0, 0 , -0.012, 563 , 98)"
fill="#000000" 
stroke="none" 
 />
<use 
xlink:href ="#F2_10" 
 transform="matrix(0.012 , 0, 0 , -0.012, 581 , 98)"
fill="#000000" 
stroke="none" 
 />
<use 
xlink:href ="#F2_16" 
 transform="matrix(0.012 , 0, 0 , -0.012, 592 , 98)"
fill="#000000" 
stroke="none" 
 />
<use 
xlink:href ="#F2_28" 
 transform="matrix(0.012 , 0, 0 , -0.012, 603 , 98)"
fill="#000000" 
stroke="none" 
 />
<use 
xlink:href ="#F2_8" 
 transform="matrix(0.012 , 0, 0 , -0.012, 615 , 98)"
fill="#000000" 
stroke="none" 
 />
<use 
xlink:href ="#F2_6" 
 transform="matrix(0.012 , 0, 0 , -0.012, 626 , 98)"
fill="#000000" 
stroke="none" 
 />
<use 
xlink:href ="#F2_36" 
 transform="matrix(0.012 , 0, 0 , -0.012, 640 , 98)"
fill="#000000" 
stroke="none" 
 />
<use 
xlink:href ="#F2_10" 
 transform="matrix(0.012 , 0, 0 , -0.012, 655 , 98)"
fill="#000000" 
stroke="none" 
 />
<use 
xlink:href ="#F2_9" 
 transform="matrix(0.012 , 0, 0 , -0.012, 666 , 98)"
fill="#000000" 
stroke="none" 
 />
<use 
xlink:href ="#F2_12" 
 transform="matrix(0.012 , 0, 0 , -0.012, 679 , 98)"
fill="#000000" 
stroke="none" 
 />
<use 
xlink:href ="#F2_8" 
 transform="matrix(0.012 , 0, 0 , -0.012, 697 , 98)"
fill="#000000" 
stroke="none" 
 />
<use 
xlink:href ="#F2_9" 
 transform="matrix(0.012 , 0, 0 , -0.012, 708 , 98)"
fill="#000000" 
stroke="none" 
 />
<use 
xlink:href ="#F2_46" 
 transform="matrix(0.012 , 0, 0 , -0.012, 722 , 98)"
fill="#000000" 
stroke="none" 
 />
<use 
xlink:href ="#F2_7" 
 transform="matrix(0.012 , 0, 0 , -0.012, 727 , 98)"
fill="#000000" 
stroke="none" 
 />
<use 
xlink:href ="#F2_17" 
 transform="matrix(0.012 , 0, 0 , -0.012, 738 , 98)"
fill="#000000" 
stroke="none" 
 />
<use 
xlink:href ="#F2_9" 
 transform="matrix(0.012 , 0, 0 , -0.012, 756 , 98)"
fill="#000000" 
stroke="none" 
 />
<use 
xlink:href ="#F2_8" 
 transform="matrix(0.012 , 0, 0 , -0.012, 763 , 98)"
fill="#000000" 
stroke="none" 
 />
<use 
xlink:href ="#F2_28" 
 transform="matrix(0.012 , 0, 0 , -0.012, 780 , 98)"
fill="#000000" 
stroke="none" 
 />
<use 
xlink:href ="#F2_7" 
 transform="matrix(0.012 , 0, 0 , -0.012, 792 , 98)"
fill="#000000" 
stroke="none" 
 />
<use 
xlink:href ="#F2_8" 
 transform="matrix(0.012 , 0, 0 , -0.012, 803 , 98)"
fill="#000000" 
stroke="none" 
 />
<use 
xlink:href ="#F2_16" 
 transform="matrix(0.012 , 0, 0 , -0.012, 814 , 98)"
fill="#000000" 
stroke="none" 
 />
<use 
xlink:href ="#F2_3" 
 transform="matrix(0.012 , 0, 0 , -0.012, 82 , 118)"
fill="#000000" 
stroke="none" 
 />
<use 
xlink:href ="#F2_6" 
 transform="matrix(0.012 , 0, 0 , -0.012, 93 , 118)"
fill="#000000" 
stroke="none" 
 />
<use 
xlink:href ="#F2_13" 
 transform="matrix(0.012 , 0, 0 , -0.012, 100 , 118)"
fill="#000000" 
stroke="none" 
 />
<use 
xlink:href ="#F2_28" 
 transform="matrix(0.012 , 0, 0 , -0.012, 117 , 118)"
fill="#000000" 
stroke="none" 
 />
<use 
xlink:href ="#F2_8" 
 transform="matrix(0.012 , 0, 0 , -0.012, 128 , 118)"
fill="#000000" 
stroke="none" 
 />
<use 
xlink:href ="#F2_8" 
 transform="matrix(0.012 , 0, 0 , -0.012, 140 , 118)"
fill="#000000" 
stroke="none" 
 />
<use 
xlink:href ="#F2_11" 
 transform="matrix(0.012 , 0, 0 , -0.012, 151 , 118)"
fill="#000000" 
stroke="none" 
 />
<use 
xlink:href ="#F2_23" 
 transform="matrix(0.012 , 0, 0 , -0.012, 162 , 118)"
fill="#000000" 
stroke="none" 
 />
<use 
xlink:href ="#F2_16" 
 transform="matrix(0.012 , 0, 0 , -0.012, 167 , 118)"
fill="#000000" 
stroke="none" 
 />
<use 
xlink:href ="#F2_28" 
 transform="matrix(0.012 , 0, 0 , -0.012, 184 , 118)"
fill="#000000" 
stroke="none" 
 />
<use 
xlink:href ="#F2_23" 
 transform="matrix(0.012 , 0, 0 , -0.012, 196 , 118)"
fill="#000000" 
stroke="none" 
 />
<use 
xlink:href ="#F2_8" 
 transform="matrix(0.012 , 0, 0 , -0.012, 201 , 118)"
fill="#000000" 
stroke="none" 
 />
<use 
xlink:href ="#F2_5" 
 transform="matrix(0.012 , 0, 0 , -0.012, 218 , 118)"
fill="#000000" 
stroke="none" 
 />
<use 
xlink:href ="#F2_17" 
 transform="matrix(0.012 , 0, 0 , -0.012, 230 , 118)"
fill="#000000" 
stroke="none" 
 />
<use 
xlink:href ="#F2_16" 
 transform="matrix(0.012 , 0, 0 , -0.012, 241 , 118)"
fill="#000000" 
stroke="none" 
 />
<use 
xlink:href ="#F2_15" 
 transform="matrix(0.012 , 0, 0 , -0.012, 253 , 118)"
fill="#000000" 
stroke="none" 
 />
<use 
xlink:href ="#F2_27" 
 transform="matrix(0.012 , 0, 0 , -0.012, 268 , 118)"
fill="#000000" 
stroke="none" 
 />
<use 
xlink:href ="#F2_10" 
 transform="matrix(0.012 , 0, 0 , -0.012, 279 , 118)"
fill="#000000" 
stroke="none" 
 />
<use 
xlink:href ="#F2_16" 
 transform="matrix(0.012 , 0, 0 , -0.012, 290 , 118)"
fill="#000000" 
stroke="none" 
 />
<use 
xlink:href ="#F2_28" 
 transform="matrix(0.012 , 0, 0 , -0.012, 308 , 118)"
fill="#000000" 
stroke="none" 
 />
<use 
xlink:href ="#F2_23" 
 transform="matrix(0.012 , 0, 0 , -0.012, 320 , 118)"
fill="#000000" 
stroke="none" 
 />
<use 
xlink:href ="#F2_8" 
 transform="matrix(0.012 , 0, 0 , -0.012, 325 , 118)"
fill="#000000" 
stroke="none" 
 />
<use 
xlink:href ="#F2_50" 
 transform="matrix(0.012 , 0, 0 , -0.012, 342 , 118)"
fill="#000000" 
stroke="none" 
 />
<use 
xlink:href ="#F2_8" 
 transform="matrix(0.012 , 0, 0 , -0.012, 355 , 118)"
fill="#000000" 
stroke="none" 
 />
<use 
xlink:href ="#F2_6" 
 transform="matrix(0.012 , 0, 0 , -0.012, 367 , 118)"
fill="#000000" 
stroke="none" 
 />
<use 
xlink:href ="#F2_8" 
 transform="matrix(0.012 , 0, 0 , -0.012, 374 , 118)"
fill="#000000" 
stroke="none" 
 />
<use 
xlink:href ="#F2_36" 
 transform="matrix(0.012 , 0, 0 , -0.012, 391 , 118)"
fill="#000000" 
stroke="none" 
 />
<use 
xlink:href ="#F2_10" 
 transform="matrix(0.012 , 0, 0 , -0.012, 406 , 118)"
fill="#000000" 
stroke="none" 
 />
<use 
xlink:href ="#F2_16" 
 transform="matrix(0.012 , 0, 0 , -0.012, 418 , 118)"
fill="#000000" 
stroke="none" 
 />
<use 
xlink:href ="#F2_9" 
 transform="matrix(0.012 , 0, 0 , -0.012, 429 , 118)"
fill="#000000" 
stroke="none" 
 />
<use 
xlink:href ="#F2_21" 
 transform="matrix(0.012 , 0, 0 , -0.012, 442 , 118)"
fill="#000000" 
stroke="none" 
 />
<use 
xlink:href ="#F2_22" 
 transform="matrix(0.012 , 0, 0 , -0.012, 455 , 118)"
fill="#000000" 
stroke="none" 
 />
<use 
xlink:href ="#F2_6" 
 transform="matrix(0.012 , 0, 0 , -0.012, 467 , 118)"
fill="#000000" 
stroke="none" 
 />
<use 
xlink:href ="#F2_23" 
 transform="matrix(0.012 , 0, 0 , -0.012, 474 , 118)"
fill="#000000" 
stroke="none" 
 />
<use 
xlink:href ="#F2_15" 
 transform="matrix(0.012 , 0, 0 , -0.012, 479 , 118)"
fill="#000000" 
stroke="none" 
 />
<use 
xlink:href ="#F2_9" 
 transform="matrix(0.012 , 0, 0 , -0.012, 489 , 118)"
fill="#000000" 
stroke="none" 
 />
<use 
xlink:href ="#F2_17" 
 transform="matrix(0.012 , 0, 0 , -0.012, 496 , 118)"
fill="#000000" 
stroke="none" 
 />
<use 
xlink:href ="#F2_15" 
 transform="matrix(0.012 , 0, 0 , -0.012, 507 , 118)"
fill="#000000" 
stroke="none" 
 />
<use 
xlink:href ="#F2_23" 
 transform="matrix(0.012 , 0, 0 , -0.012, 523 , 118)"
fill="#000000" 
stroke="none" 
 />
<use 
xlink:href ="#F2_15" 
 transform="matrix(0.012 , 0, 0 , -0.012, 528 , 118)"
fill="#000000" 
stroke="none" 
 />
<use 
xlink:href ="#F2_46" 
 transform="matrix(0.012 , 0, 0 , -0.012, 543 , 118)"
fill="#000000" 
stroke="none" 
 />
<use 
xlink:href ="#F2_17" 
 transform="matrix(0.012 , 0, 0 , -0.012, 549 , 118)"
fill="#000000" 
stroke="none" 
 />
<use 
xlink:href ="#F2_23" 
 transform="matrix(0.012 , 0, 0 , -0.012, 560 , 118)"
fill="#000000" 
stroke="none" 
 />
<use 
xlink:href ="#F2_15" 
 transform="matrix(0.012 , 0, 0 , -0.012, 565 , 118)"
fill="#000000" 
stroke="none" 
 />
<use 
xlink:href ="#F2_23" 
 transform="matrix(0.012 , 0, 0 , -0.012, 580 , 118)"
fill="#000000" 
stroke="none" 
 />
<use 
xlink:href ="#F2_16" 
 transform="matrix(0.012 , 0, 0 , -0.012, 586 , 118)"
fill="#000000" 
stroke="none" 
 />
<use 
xlink:href ="#F2_46" 
 transform="matrix(0.012 , 0, 0 , -0.012, 603 , 118)"
fill="#000000" 
stroke="none" 
 />
<use 
xlink:href ="#F2_7" 
 transform="matrix(0.012 , 0, 0 , -0.012, 608 , 118)"
fill="#000000" 
stroke="none" 
 />
<use 
xlink:href ="#F2_17" 
 transform="matrix(0.012 , 0, 0 , -0.012, 619 , 118)"
fill="#000000" 
stroke="none" 
 />
<use 
xlink:href ="#F2_27" 
 transform="matrix(0.012 , 0, 0 , -0.012, 637 , 118)"
fill="#000000" 
stroke="none" 
 />
<use 
xlink:href ="#F2_23" 
 transform="matrix(0.012 , 0, 0 , -0.012, 647 , 118)"
fill="#000000" 
stroke="none" 
 />
<use 
xlink:href ="#F2_6" 
 transform="matrix(0.012 , 0, 0 , -0.012, 653 , 118)"
fill="#000000" 
stroke="none" 
 />
<use 
xlink:href ="#F2_10" 
 transform="matrix(0.012 , 0, 0 , -0.012, 666 , 118)"
fill="#000000" 
stroke="none" 
 />
<use 
xlink:href ="#F2_16" 
 transform="matrix(0.012 , 0, 0 , -0.012, 677 , 118)"
fill="#000000" 
stroke="none" 
 />
<use 
xlink:href ="#F2_28" 
 transform="matrix(0.012 , 0, 0 , -0.012, 689 , 118)"
fill="#000000" 
stroke="none" 
 />
<use 
xlink:href ="#F2_8" 
 transform="matrix(0.012 , 0, 0 , -0.012, 701 , 118)"
fill="#000000" 
stroke="none" 
 />
<use 
xlink:href ="#F2_6" 
 transform="matrix(0.012 , 0, 0 , -0.012, 712 , 118)"
fill="#000000" 
stroke="none" 
 />
<use 
xlink:href ="#F2_24" 
 transform="matrix(0.012 , 0, 0 , -0.012, 720 , 118)"
fill="#000000" 
stroke="none" 
 />
<use 
xlink:href ="#F2_47" 
 transform="matrix(0.012 , 0, 0 , -0.012, 82 , 157)"
fill="#000000" 
stroke="none" 
 />
<use 
xlink:href ="#F2_8" 
 transform="matrix(0.012 , 0, 0 , -0.012, 98 , 157)"
fill="#000000" 
stroke="none" 
 />
<use 
xlink:href ="#F2_9" 
 transform="matrix(0.012 , 0, 0 , -0.012, 109 , 157)"
fill="#000000" 
stroke="none" 
 />
<use 
xlink:href ="#F2_22" 
 transform="matrix(0.012 , 0, 0 , -0.012, 122 , 157)"
fill="#000000" 
stroke="none" 
 />
<use 
xlink:href ="#F2_10" 
 transform="matrix(0.012 , 0, 0 , -0.012, 134 , 157)"
fill="#000000" 
stroke="none" 
 />
<use 
xlink:href ="#F2_6" 
 transform="matrix(0.012 , 0, 0 , -0.012, 145 , 157)"
fill="#000000" 
stroke="none" 
 />
<use 
xlink:href ="#F2_9" 
 transform="matrix(0.012 , 0, 0 , -0.012, 153 , 157)"
fill="#000000" 
stroke="none" 
 />
<use 
xlink:href ="#F2_11" 
 transform="matrix(0.012 , 0, 0 , -0.012, 160 , 157)"
fill="#000000" 
stroke="none" 
 />
<use 
xlink:href ="#F2_23" 
 transform="matrix(0.012 , 0, 0 , -0.012, 165 , 157)"
fill="#000000" 
stroke="none" 
 />
<use 
xlink:href ="#F2_3" 
 transform="matrix(0.012 , 0, 0 , -0.012, 170 , 157)"
fill="#000000" 
stroke="none" 
 />
<use 
xlink:href ="#F2_8" 
 transform="matrix(0.012 , 0, 0 , -0.012, 180 , 157)"
fill="#000000" 
stroke="none" 
 />
<use 
xlink:href ="#F2_5" 
 transform="matrix(0.012 , 0, 0 , -0.012, 198 , 157)"
fill="#000000" 
stroke="none" 
 />
<use 
xlink:href ="#F2_6" 
 transform="matrix(0.012 , 0, 0 , -0.012, 209 , 157)"
fill="#000000" 
stroke="none" 
 />
<use 
xlink:href ="#F2_7" 
 transform="matrix(0.012 , 0, 0 , -0.012, 217 , 157)"
fill="#000000" 
stroke="none" 
 />
<use 
xlink:href ="#F2_8" 
 transform="matrix(0.012 , 0, 0 , -0.012, 228 , 157)"
fill="#000000" 
stroke="none" 
 />
<use 
xlink:href ="#F2_9" 
 transform="matrix(0.012 , 0, 0 , -0.012, 239 , 157)"
fill="#000000" 
stroke="none" 
 />
<use 
xlink:href ="#F2_8" 
 transform="matrix(0.012 , 0, 0 , -0.012, 246 , 157)"
fill="#000000" 
stroke="none" 
 />
<use 
xlink:href ="#F2_34" 
 transform="matrix(0.012 , 0, 0 , -0.012, 258 , 157)"
fill="#000000" 
stroke="none" 
 />
<use 
xlink:href ="#F2_20" 
 transform="matrix(0.012 , 0, 0 , -0.012, 82 , 237)"
fill="#000000" 
stroke="none" 
 />
<use 
xlink:href ="#F2_10" 
 transform="matrix(0.012 , 0, 0 , -0.012, 93 , 237)"
fill="#000000" 
stroke="none" 
 />
<use 
xlink:href ="#F2_6" 
 transform="matrix(0.012 , 0, 0 , -0.012, 105 , 237)"
fill="#000000" 
stroke="none" 
 />
<use 
xlink:href ="#F2_8" 
 transform="matrix(0.012 , 0, 0 , -0.012, 112 , 237)"
fill="#000000" 
stroke="none" 
 />
<use 
xlink:href ="#F2_11" 
 transform="matrix(0.012 , 0, 0 , -0.012, 124 , 237)"
fill="#000000" 
stroke="none" 
 />
<use 
xlink:href ="#F2_49" 
 transform="matrix(0.012 , 0, 0 , -0.012, 135 , 237)"
fill="#000000" 
stroke="none" 
 />
<use 
xlink:href ="#F2_7" 
 transform="matrix(0.012 , 0, 0 , -0.012, 145 , 237)"
fill="#000000" 
stroke="none" 
 />
<use 
xlink:href ="#F2_17" 
 transform="matrix(0.012 , 0, 0 , -0.012, 156 , 237)"
fill="#000000" 
stroke="none" 
 />
<use 
xlink:href ="#F2_36" 
 transform="matrix(0.012 , 0, 0 , -0.012, 167 , 237)"
fill="#000000" 
stroke="none" 
 />
<defs>
	<path d="M149.7,0l0,1113.8l224.6,0L658.5,354.4l285.7,759.4l224.6,0L1168.8,0L1020.6,0l0,977.8L733.3,213.9l-151.2,0L294.9,977.8L294.9,0Z" 
	id="F2_47"
	 />

	<path d="M407.9,93.2c0,0,113.1,0,181.8,79.4c0,0,70.3,81,70.3,215.5l0,30.5l-137.5,0c0,0,-166.5,0,-230.7,-36.7c0,0,-64.2,-38.1,-64.2,-129.8c0,0,0,-73.3,47.4,-116.1c0,0,48.9,-42.8,132.9,-42.8ZM371.3,-21.3c0,0,-128.4,0,-203.2,71.7c0,0,-76.4,71.8,-76.4,192.5c0,0,0,140.6,93.2,212.4c0,0,94.7,71.8,282.6,71.8l192.5,0l0,13.7c0,0,0,94.8,-62.6,145.2c0,0,-62.7,51.9,-175.7,51.9c0,0,-71.8,0,-139.1,-16.8c0,0,-67.2,-16.8,-129.8,-51.9l0,126.8c0,0,74.8,30.5,145.1,44.3c0,0,71.8,15.3,139,15.3c0,0,180.3,0,268.9,-93.2c0,0,90.2,-94.8,90.2,-285.7L796,0L660,0l0,126.8c0,0,-47.4,-76.4,-117.6,-111.5c0,0,-70.3,-36.6,-171.1,-36.6Z" 
	id="F2_10"
	 />

	<path d="M458.3,114.6c0,0,111.6,0,172.7,81c0,0,62.6,82.5,62.6,230.7c0,0,0,149.7,-61.1,230.6c0,0,-62.6,82.5,-174.2,82.5c0,0,-110,0,-171.1,-80.9c0,0,-62.6,-82.5,-62.6,-232.2c0,0,0,-148.2,61.1,-229.2c0,0,62.6,-82.5,172.6,-82.5ZM444.6,-317.7c0,0,-71.8,0,-136,10.7c0,0,-64.2,12.2,-123.7,33.6l0,134.5c0,0,59.5,-33.6,117.6,-48.9c0,0,59.6,-15.3,120.7,-15.3c0,0,136,0,203.2,70.3c0,0,67.2,70.3,67.2,210.7l0,68.8c0,0,-42.8,-74.9,-108.5,-110C585.1,36.7,517.9,0,424.7,0c0,0,-152.8,0,-245.9,116.1c0,0,-94.8,117.7,-94.8,310.2c0,0,0,194,93.2,311.6c0,0,94.7,117.7,247.5,117.7c0,0,93.2,0,158.9,-36.7c0,0,67.2,-36.7,110,-111.5l0,126.8l136,0l0,-731.8c0,0,0,-210.8,-94.7,-314.7c0,0,-94.8,-105.4,-290.3,-105.4Z" 
	id="F2_5"
	 />

	<path d="M-27.4,-317.7l0,117.7l35,0c0,0,79.5,0,107,35.1c0,0,29,36.7,29,151.2l0,847.9l137.5,0l0,-847.9c0,0,0,-160.4,-61.1,-232.2c0,0,-61.1,-71.8,-195.6,-71.8Zm171,1303.1l0,174.2l137.5,0l0,-174.2Z" 
	id="F2_46"
	 />

	<path d="M120.7,-317.7l0,116.1l79.4,0c0,0,56.6,0,87.1,26c0,0,32.1,27.5,70.3,126.8l24.4,61L44.3,834.2l145.1,0L450.7,181.8L711.9,834.2l146.7,0L490.4,-76.3c0,0,-58,-149.7,-113,-195.5c0,0,-55,-45.9,-148.2,-45.9Z" 
	id="F2_13"
	 />

	<path d="M375.8,-21.3c0,0,-67.2,0,-140.5,12.2c0,0,-73.4,12.2,-152.8,39.7l0,140.5c0,0,76.4,-39.7,149.7,-58c0,0,73.4,-19.9,146.7,-19.9c0,0,96.2,0,148.2,32.1c0,0,51.9,33.6,51.9,94.7c0,0,0,55,-36.6,84c0,0,-38.2,30.6,-165,58.1l-48.9,12.2c0,0,-126.8,26,-183.4,81c0,0,-56.5,56.5,-56.5,152.8c0,0,0,119.1,82.5,183.3c0,0,84,64.2,238.3,64.2c0,0,74.9,0,142.1,-10.7c0,0,67.3,-12.3,123.8,-35.2l0,-129.8c0,0,-58.1,30.5,-120.7,44.3c0,0,-62.7,15.2,-129.9,15.2c0,0,-102.3,0,-152.8,-30.5c0,0,-50.4,-32.1,-50.4,-94.7c0,0,0,-47.4,35.2,-74.9c0,0,36.6,-27.5,148.2,-51.9l45.8,-10.7c0,0,146.7,-30.6,207.8,-87.1c0,0,62.6,-58.1,62.6,-160.4c0,0,0,-116.1,-91.7,-183.4c0,0,-93.1,-67.1,-253.6,-67.1Z" 
	id="F2_15"
	 />

	<path d="M420.1,0c0,0,-158.8,0,-218.4,58.1c0,0,-61.1,59.5,-61.1,216.9l0,453.8l-100.9,0l0,105.4l100.9,0l0,238.3l139,0l0,-238.3l282.6,0l0,-105.4l-282.6,0l0,-453.8c0,0,0,-102.4,27.5,-131.4c0,0,27.5,-29,113,-29l142.1,0L562.2,0Z" 
	id="F2_9"
	 />

	<path d="M230.7,490.4l490.4,1.5c0,0,-1.5,111.6,-62.6,178.8c0,0,-62.7,67.2,-163.5,67.2c0,0,-114.6,0,-183.3,-64.1c0,0,-70.3,-65.7,-81,-183.4ZM516.4,-21.3c0,0,-198.6,0,-314.7,116C201.7,94.7,84,210.8,84,409.4c0,0,0,204.8,110,325.5c0,0,111.6,120.7,299.5,120.7c0,0,168,0,265.8,-108.5c0,0,99.3,-110,99.3,-296.4l0,-67.2l-632.5,0c0,0,9.2,-140.6,85.6,-213.9c0,0,76.4,-74.9,213.9,-74.9c0,0,77.9,0,152.7,18.4c0,0,74.9,19.8,148.2,58l0,-129.8c0,0,-74.8,-30.6,-151.2,-45.8c0,0,-77.9,-16.8,-158.9,-16.8Z" 
	id="F2_8"
	 />

	<path d="M458.3,93.2c0,0,110,0,172.7,85.6c0,0,62.6,85.5,62.6,236.8c0,0,0,152.7,-62.6,238.3c0,0,-62.7,85.5,-172.7,85.5c0,0,-108.4,0,-171.1,-85.5c0,0,-62.6,-85.6,-62.6,-238.3c0,0,0,-151.3,62.6,-236.8c0,0,62.7,-85.6,171.1,-85.6ZM424.7,-21.3c0,0,-151.2,0,-245.9,120.6C178.8,99.3,84,220,84,415.6c0,0,0,197,94.8,317.7c0,0,94.7,122.3,245.9,122.3c0,0,93.2,0,158.9,-36.7c0,0,65.7,-36.7,110,-111.5l0,452.2l136,0L829.6,0l-136,0l0,125.3c0,0,-44.3,-74.9,-110,-110c0,0,-65.7,-36.6,-158.9,-36.6Z" 
	id="F2_28"
	 />

	<path d="M640.1,-21.3c0,0,-259.7,0,-406.3,151.2c0,0,-148.2,152.7,-148.2,424.7c0,0,0,273.5,146.6,426.2c0,0,148.2,152.8,407.9,152.8c0,0,110,0,207.8,-26c0,0,97.8,-27.5,180.3,-80.9l0,-160.4c0,0,-82.5,71.8,-175.7,106.9c0,0,-94.7,36.7,-198.6,36.7c0,0,-204.7,0,-307.1,-114.6c0,0,-102.4,-114.6,-102.4,-340.7c0,0,0,-224.6,102.4,-339.2c0,0,102.4,-114.6,307.1,-114.6c0,0,79.4,0,142.1,13.8c0,0,62.6,13.7,113,44.3l0,297.9l-245.9,0l0,123.8l394.1,0l0,-478.2c0,0,-87.1,-61.1,-190.9,-91.7c0,0,-105.5,-32,-226.2,-32Z" 
	id="F2_19"
	 />

	<path d="M467.5,94.7c0,0,108.5,0,172.6,85.6c0,0,64.2,87.1,64.2,235.3c0,0,0,149.7,-64.2,235.2c0,0,-64.1,87.1,-172.6,87.1c0,0,-111.5,0,-175.7,-85.5c0,0,-64.2,-85.6,-64.2,-236.8c0,0,0,-149.8,64.2,-235.3c0,0,64.2,-85.6,175.7,-85.6Zm0,-116c0,0,-180.3,0,-281.1,116C186.4,94.7,84,210.8,84,415.6c0,0,0,206.2,100.9,322.3c0,0,102.3,117.7,282.6,117.7c0,0,178.8,0,281.1,-116.2c0,0,102.4,-117.6,102.4,-323.8c0,0,0,-204.8,-102.4,-320.9c0,0,-102.3,-116,-281.1,-116Z" 
	id="F2_7"
	 />

	<path d="M421.7,-21.3c0,0,-143.6,0,-218.5,88.5L128.3,328.5l0,505.7l137.5,0l0,-499.6c0,0,0,-119.2,45.9,-178.8c0,0,47.3,-59.5,139,-59.5c0,0,111.5,0,175.7,70.2c0,0,65.7,71.8,65.7,194.1l0,473.6l136,0L828.1,0l-136,0l0,126.8c0,0,-50.4,-74.9,-116.1,-111.5c0,0,-67.2,-36.6,-154.3,-36.6Z" 
	id="F2_17"
	 />

	<path d="M137.5,0l0,834.2l139,0l0,-129.9c0,0,48.9,76.4,114.6,113.1c0,0,67.2,38.2,154.3,38.2c0,0,145.2,0,218.5,-88.7c0,0,73.3,-90.1,73.3,-262.7L837.2,0L699.7,0l0,499.6c0,0,0,117.6,-45.8,175.7c0,0,-45.8,59.6,-139,59.6c0,0,-110,0,-174.2,-70.3c0,0,-64.2,-70.3,-64.2,-192.5L276.5,0Z" 
	id="F2_16"
	 />

	<path d="M143,0l0,834l138,0L281,0Zm0,985l0,174l138,0l0,-174Z" 
	id="F2_23"
	 />

	<path d="M143,0l0,1159l138,0L281,0Z" 
	id="F2_11"
	 />

	<path d="M282.6,0L62.6,834.2l137.5,0L372.8,183.3L542.4,834.2l161.9,0L876.9,183.3l171.2,650.9l135.9,0L965.6,0l-162,0L624.9,684.4L444.6,0Z" 
	id="F2_36"
	 />

	<path d="M137.5,0l0,834.2l139,0l0,-129.9c0,0,45.9,77.9,111.6,114.6c0,0,65.7,36.7,155.8,36.7c0,0,91.7,0,154.3,-45.9c0,0,64.2,-47.3,96.2,-135.9c0,0,50.5,93.1,122.3,137.5c0,0,71.8,44.3,168,44.3c0,0,131.4,0,201.7,-91.7c0,0,71.8,-91.7,71.8,-259.7L1358.2,0l-139,0l0,499.6c0,0,0,119.2,-41.3,177.2c0,0,-42.8,58.1,-129.8,58.1c0,0,-107,0,-168.1,-70.3c0,0,-62.6,-70.3,-62.6,-192.5L817.4,0L678.3,0l0,499.6c0,0,0,120.7,-41.2,177.2c0,0,-42.8,58.1,-131.4,58.1c0,0,-105.4,0,-166.5,-70.3c0,0,-62.7,-71.8,-62.7,-192.5L276.5,0Z" 
	id="F2_12"
	 />

	<path d="M137.5,0l0,834.2l139,0l0,-129.9c0,0,42.8,76.4,111.6,113.1c0,0,70.2,38.2,169.5,38.2c0,0,13.8,0,30.6,-1.6c0,0,16.8,-3,38.2,-6.1l1.5,-142.1c0,0,-24.4,13.8,-50.4,19.9c0,0,-27.5,6.1,-61.1,6.1c0,0,-116.1,0,-177.2,-74.9c0,0,-62.7,-76.3,-62.7,-216.9l0,-440Z" 
	id="F2_6"
	 />

	<path d="M137.5,0l0,1159.6l139,0l0,-684.5L686,834.2l174.1,0L417.1,444.6L880,0L699.7,0L276.5,407.9L276.5,0Z" 
	id="F2_3"
	 />

	<path d="M357.5,0L44.3,834.2l145.1,0L450.7,132.9L711.9,834.2l146.7,0L543.9,0Z" 
	id="F2_27"
	 />

	<path d="M149,0l0,1113l150,0l0,-457l548,0l0,457l150,0L997,0L847,0l0,530l-548,0L299,0Z" 
	id="F2_50"
	 />

	<path d="M629.4,-21.3c0,0,-253.6,0,-398.7,154.2c0,0,-145.1,154.3,-145.1,421.7c0,0,0,268.9,145.1,423.2c0,0,145.1,155.8,398.7,155.8c0,0,99.4,0,188,-26c0,0,88.6,-27.5,166.5,-80.9l0,-158.9c0,0,-76.4,71.8,-162,106.9c0,0,-87,35.2,-184.8,35.2c0,0,-191,0,-291.8,-116.1c0,0,-100.9,-117.7,-100.9,-339.2c0,0,0,-220,100.9,-336.1c0,0,100.8,-117.7,291.8,-117.7c0,0,97.8,0,183.3,35.2c0,0,87.1,35.1,163.5,106.9l0,-157.3c0,0,-79.5,-55,-168.1,-81c0,0,-88.6,-25.9,-186.4,-25.9Z" 
	id="F2_21"
	 />

	<path d="M137.5,0l0,1159.6l139,0l0,-455.3c0,0,48.9,76.4,114.6,113.1c0,0,67.2,38.2,154.3,38.2c0,0,145.2,0,218.5,-88.7c0,0,73.3,-90.1,73.3,-262.7L837.2,0L699.7,0l0,499.6c0,0,0,117.6,-45.8,175.7c0,0,-45.8,59.6,-139,59.6c0,0,-110,0,-174.2,-70.3c0,0,-64.2,-70.3,-64.2,-192.5L276.5,0Z" 
	id="F2_22"
	 />

	<path d="M229.2,0l0,189.4l151.2,0L380.4,0ZM246,357.5L229.2,624.9l0,488.9l151.2,0l0,-488.9L366.7,357.5Z" 
	id="F2_24"
	 />

	<path d="M117.6,-177.1L178.8,61.1l0,128.3l157.3,0l0,-128.3L213.9,-177.1Z" 
	id="F2_34"
	 />

	<path d="M456.8,-21.3c0,0,-77.9,0,-166.5,16.8c0,0,-90.2,18.3,-186.4,53.4l0,154.3c0,0,91.7,-50.4,180.3,-76.4c0,0,88.6,-27.5,172.6,-27.5c0,0,129.9,0,200.1,50.4c0,0,70.3,52,70.3,145.2c0,0,0,82.5,-50.4,128.3c0,0,-50.4,47.4,-166.5,70.3l-91.7,16.8c0,0,-168,33.6,-242.9,105.4c0,0,-76.4,71.8,-76.4,200.1c0,0,0,146.7,103.9,232.3c0,0,105.4,85.5,287.2,85.5c0,0,79.5,0,160.4,-13.7c0,0,81,-15.3,166.6,-42.8l0,-148.2c0,0,-85.6,41.2,-162,61.1c0,0,-76.4,21.4,-146.6,21.4c0,0,-123.8,0,-189.5,-47.4c0,0,-67.2,-48.9,-67.2,-137.5c0,0,0,-73.3,44.3,-110c0,0,44.3,-38.2,168,-61.1l90.2,-19.8c0,0,169.6,-32.1,249,-111.6c0,0,81,-80.9,81,-216.9c0,0,0,-162,-108.5,-244.5c0,0,-108.5,-83.9,-319.3,-83.9Z" 
	id="F2_20"
	 />

	<path d="M149,0l0,1113l150,0l0,-987l542,0L841,0Z" 
	id="F2_49"
	 />


</defs>
</svg>